<?xml version="1.0" encoding="UTF-8" standalone="no"?>
<svg id="svg8458" xmlns:rdf="http://www.w3.org/1999/02/22-rdf-syntax-ns#" xmlns="http://www.w3.org/2000/svg" height="233.1mm" width="233.87mm" version="1.1" xmlns:cc="http://creativecommons.org/ns#" xmlns:dc="http://purl.org/dc/elements/1.1/" viewBox="0 0 828.6884 825.95214">
<g id="layer1" transform="translate(150.76 -.81469)">
<path id="path10" d="m-12.257 0.82623c-11.136-0.38935-22.803 9.1381-27.678 18.347-5.5719 10.318-5.571 23.938-4.3328 35.288 1.6509 16.303 6.8078 32.192 14.031 46.638 7.4292 15.271 17.543 28.89 24.147 44.574 9.0801 21.462 7.8388 42.101 2.886 64.388-0.82546 3.5082-1.6487 6.8109-2.6805 10.113-5.3655 3.0955-10.733 6.3949-15.892 9.9031-1.6509 1.0318-3.2988 2.2724-4.9497 3.5106 4.3337-7.0164 7.8404-14.447 10.73-22.289 7.8419-21.049 13.825-53.655 1.4429-74.291-7.4292-12.588-20.84-21.668-35.904-20.842-12.382 0.61909-22.703 8.8745-24.973 21.463-1.6509 9.2864-0.2043 22.08 8.8754 27.033 9.9055 5.3655 25.383 1.6509 30.955-8.2546 0.6191-1.2382-0.2043-5.9862-0.41129-5.7798-6.6037 8.2546-26.623 7.2252-33.433-0.61668-6.8101-7.8419 5.1614-14.446 11.765-16.509 7.8419-2.6828 16.713-1.8589 24.349 1.443 43.337 18.779 13.413 79.656-8.0491 104.42-11.35 13.001-23.523 26.208-31.777 41.273 2.0637-6.191 0.20224-14.65-1.2413-20.221-3.9209-13.001-17.951-20.845-30.745-15.066-10.525 4.54-14.653 14.031-12.176 25.175 2.8891 13.207 19.603 9.0801 27.239 2.0636 0.41273-0.41273 0.41356-3.5058-0.20637-3.7122-5.1591-1.6509-11.969 0-17.541-1.0318-2.4764-0.41273-6.3973-2.2716-6.191-3.7162 0.41273-2.8891 5.7797-7.0156 7.8433-8.4602 5.5719-3.7146 13.413-4.7456 19.81-2.2692 10.937 3.9209 17.334 19.811 10.524 29.923-0.20636 0.41273-0.000825 2.0636 0.20637 2.0636 0.20636-0.20636 0.61992-0.61909 0.82629-1.0318-4.7464 9.9055-7.8404 20.634-7.6341 32.603 0.6191 27.034 13.826 50.148 35.288 65.626-6.191 1.4446-11.559 4.9536-13.829 11.145-7.4292 19.811 14.654 35.287 17.956 53.034 1.6509 8.6673 0.6191 18.574 5.1591 26.622 4.7464 8.2546 14.238 10.731 23.111 9.2864-7.4292 12.176-18.158 21.669-20.222 36.94-1.6509 12.795-1.4468 28.27 4.7441 39.826 3.9209-20.637 31.163-41.684 49.116-25.175 5.5719 5.1591 9.285 11.556 15.889 15.683 6.6037 4.1273 14.651 5.1608 21.874 7.8435 11.969 4.3337 19.399 16.303 9.0809 27.859-6.3973 7.0164-16.302 10.11-24.969 12.793-22.287 6.3973-43.131 7.4292-65.831 5.1591-0.6191 0-0.41273 3.509 0 3.9217 12.588 9.0801 29.512 7.8411 43.957 5.3647 12.795-2.27 26.827-5.5727 38.178-12.176 12.795-7.4292 22.287-27.859 12.588-41.273 8.461-10.318 21.462-14.238 31.987-22.079 13.414-10.112 23.731-24.35 35.288-36.319 12.176-12.588 24.765-24.764 37.766-36.114 11.144-9.6992 23.523-17.956 28.476-32.402 0.20636-0.6191-0.20431-3.5066-0.41108-3.5066-7.6355 12.382-19.398 20.844-30.129 30.544-13.001 11.969-25.592 24.556-37.561 37.557-10.937 11.969-21.049 25.797-34.05 35.703-0.6191-8.2546-2.0628-16.303-7.4283-22.7-8.461-10.112-21.462-15.478-30.955-24.558 4.9528-4.1273 8.8745-9.7008 14.24-14.034 6.6037-5.3655 15.478-5.3631 17.335-15.062 1.2382-6.81-0.4119-13.827-4.3328-19.399-2.27-3.0955-4.7495-5.7798-7.4322-7.8435 2.4764-0.41273 4.7472-0.82305 7.0172-1.6485 13.62 2.27 21.668 9.9031 18.573 27.444-1.2382 7.4292-3.509 14.653-3.9218 22.495-0.6191 10.731 4.54 31.779 19.605 19.81 6.191-4.9528 7.4322-14.857 8.4641-22.079 1.6509-12.176 1.2382-24.559 9.2864-34.671 8.2546-10.525 22.078-14.24 34.873-15.272 14.239-1.2382 30.749 2.8915 44.163-2.6803-2.0637 8.2546 0.20781 18.983 1.6524 26.412 2.6828 14.033 9.0809 30.75 4.9536 44.989-9.9055 33.225-55.512-0.20637-74.292 20.637-6.8101 1.8573-11.56 8.4594-8.4641 15.889 6.3973 15.065 36.527 4.5416 47.464 2.6844 6.3973-1.0318 14.036-2.478 19.814 1.443 6.81 4.54 4.7464 16.925 2.0636 23.942-1.2382 3.5082-2.685 7.2204-3.5105 10.935-3.0955 13.826-0.00082 27.448 3.301 40.862l-18.573 0.61668c-0.41273 0-0.616 0.82707-0.82236 1.6525-3.7146-2.0636-8.4618-3.0971-13.208-4.748-13.414-4.54-14.241-17.744-25.384-24.554-10.731-6.6037-23.319-4.7464-31.987 4.1273l-1.8581 1.8541c-10.525-6.81-19.81-14.03-18.778-28.682 0.41273-6.3973 3.0969-13.623-0.41129-19.814 0-0.20637-0.20636 1.6517-0.20636 1.8581 2.4764 11.763-4.3343 22.702 0.20636 34.671 1.8573 4.9528 7.6341 15.685 13.825 18.367-7.2228 10.318-12.795 23.936-8.2546 34.667 0.41273 0.82546 0.62137-2.2708 0.415-2.8899-2.8891-9.9055 4.1259-23.318 13.825-32.192 0.41273-0.20636 0.82381-0.61909 1.4429-1.0318 0 0 0.20946-0.20472 0.20946-0.41112 5.5719-4.7464 11.969-8.0499 17.541-7.8435 8.0482 0.20637 15.887 4.7464 20.427 11.35 4.54 6.3973 5.9846 13.003 13.414 16.924 6.6037 3.5082 17.131 2.474 21.878 8.8713 4.9528 6.8101-0.20864 14.447-5.5741 19.194-13.414 11.969-31.16 15.062-47.875 19.19-0.6191 0.20637-0.41273 3.3043 0 3.5106 4.54 1.6509 10.111 1.8573 15.683 1.0318 0 0.41273 0.20637 0.82626 0.20637 0.82626 5.7782 0.41273 11.969 1.031 17.541 3.301 8.461 3.7146 16.303 14.446 7.2228 22.7-8.8737 8.2546-19.193 13.621-26.622 23.526-6.6037 8.8737-11.141 29.304-25.381 27.859-5.5719-0.61909-9.4928-4.1289-12.382-8.8753-0.41273-11.763-5.7782-25.382-7.2228-33.224-0.41273-2.0637-0.62054 1.0294-0.62054 1.6485 0 0.41273 0.20637 0.6191 0.20637 1.0318 0 0-0.20637 0.20798-0.20637 0.62071-0.82546 9.9055 0.61972 21.876 4.9534 31.781-0.41273 4.54-2.27 8.6665-7.2228 10.524-3.3018 1.2382-7.222 0.82466-10.524 0.20554-8.8737-2.0636-14.032-7.4267-19.81-14.03-7.0164-8.0482-14.448-10.32-24.147-14.034-4.7464-1.8573-17.332-6.8117-15.062-13.003 1.8573-4.7464 9.9039-8.6649 13.825-10.935 10.112-5.5719 22.082-8.2546 31.781-14.446 0.6191-0.41273 0.61992-4.5392-0.20637-4.3329-7.2228 1.0318-14.858 4.5392-21.668 7.4283-1.6509 0.6191-3.0969 1.2382-4.7478 2.0637-4.54-2.27-9.2881-3.3018-14.034-5.1591-4.7464-1.8573-7.6332-4.3337-8.8714-8.2546 8.8737-4.1273 20.431-3.7138 27.654-10.524 5.5719-5.1591 6.3951-13.415 5.776-20.431-0.82546-8.461-4.1281-17.335-10.113-23.732-1.4446-1.4446-2.6819-2.4788-4.3328-3.5106 3.7146-10.112 26.002-4.9512 33.018-2.4748 9.9055 3.7146 15.273 11.142 17.956 21.048 1.8573 6.3973 1.8565 16.097 6.3965 21.463 0.41273 0.41273 0.41129-2.8883 0.41129-3.301-5.1591-20.637-7.6332-42.305-31.572-47.464-10.937-2.27-26.416-2.062-27.448 9.9072-6.6037-3.7146-14.447-3.717-22.289-3.5106-0.41273 0-0.20636 2.0636 0 2.0636 7.6355 0.41274 16.097 1.0334 22.495 5.7798v0.41112c0.20636 0.82547 0.20864 0.41273 0.415 0 8.461 6.3973 16.302 21.668 11.556 31.987-5.5719 11.763-28.684 8.8745-38.383 17.335-6.6037 5.5719-9.907 13.62-17.13 18.573-6.8101 4.7464-14.446 6.6037-22.495 7.2228-14.033 0.82546-22.287-4.3353-26.827-13.003 1.6509-2.6828 2.8914-5.3655 3.5105-8.2546 2.6827-10.525-5.9877-17.538-5.3686-27.65 0-0.41273-0.41108-2.2708-0.41108-0.82626-0.41273 5.7782 1.4429 9.4912 3.5066 14.857 2.6827 7.0164 1.0341 13.413-2.6805 18.778-2.27-5.5719-3.3033-12.172-3.716-19.395 0-1.2382-0.61683-2.2724-0.61683-0.41515-0.20636 7.2228 0.20637 15.271 2.2692 22.7-4.1273 4.7464-9.7006 8.4626-15.066 10.939-9.2864 4.3337-20.429 5.5727-30.334 2.8899-5.1591-1.4446-10.732-4.1305-14.034-8.4642-3.9209-4.9528-4.1273-11.348-6.191-16.92-3.0955-8.2546-9.0786-10.938-16.921-14.24-4.9528-2.0636-9.9078-4.5408-12.797-9.0809-9.0801-13.826-0.41108-22.907 9.9072-26.828 23.113-8.8737 48.495-5.5719 72.433-7.2228 0.41273 0 0.41273-3.0947 0-3.301-15.271-2.4764-30.955-2.8883-46.432-1.2374-4.7464-4.3337-10.113-7.8435-15.272-11.971-2.8891-2.27-5.7782-4.744-8.2546-7.8395-3.7146-4.7464-7.4261-13.622-0.82237-17.13 4.9528-2.6828 11.144-2.2676 16.509-3.7122 6.3973-1.6509 10.522-5.1624 14.236-10.528 9.4928-13.414 16.718-29.301 36.529-22.491 25.589 8.6674 28.685 37.765 29.923 60.878 0 1.4446 0.61682 1.4446 0.61682 0 0.41273-9.6992-0.2043-20.637-2.6805-30.955 0-0.82546-0.000619-1.8589 0.20637-2.6844-3.0955-11.556-8.668-22.082-18.367-28.686-8.461-5.7782-20.015-8.6665-29.508-3.301-9.2864 5.3655-12.179 16.51-18.782 24.558-7.0164 8.2546-15.682 7.0172-25.175 10.113-5.3655 1.8573-8.4593 4.7456-8.6657 10.524-1.0318 17.541 15.064 24.35 27.033 33.224-1.2382 0.20637-2.2723 0.20472-3.5105 0.41112-10.937 1.6509-27.238 3.3043-32.603 14.861-3.0955 6.81-2.8914 15.889-0.415 22.906 4.7464 13.62 16.511 12.795 26.416 20.637 8.8737 7.0164 7.4285 18.573 13.619 26.827-3.5082-1.2382-8.0491-0.62071-11.145-0.62071-5.7782 0.20637-11.763 1.2398-17.541 1.6525-0.41273 0-0.41273 2.4748 0 2.4748 5.5719 0 11.147-0.61668 16.719-0.61668 3.0955 0 5.9815-0.002 9.077 0.61668 2.0636 0.41273 4.3337 1.8581 6.191 1.8581 0.41273 0 0.41583-1.0326 0.20946-1.8581 0.6191 0.41273 1.2382 1.0342 2.0637 1.447 9.9055 5.5719 22.904 5.5694 33.635 1.6485 0 0.61909 0.20864 1.0318 0.415 1.0318 16.716 3.5082 31.16 11.972 42.716 23.942 0 0.82546 0.2043 1.6485 0.41129 1.6485h1.0318c0 0.20636 0.20946 0.20878 0.20946 0.41514 0 0.20637-0.000826 0.41032 0.20636 0.61668h-4.1273c-0.41273 0-0.20636 2.0637 0 2.0637 2.6827 0.41273 5.3632 0.82707 7.8396 1.6525l0.62054 0.61668s0.20637-0.20471 0.20637-0.41112c11.35 3.3018 21.668 10.317 30.129 18.778 15.684 15.89 17.337 36.527 15.893 57.782 0 0.41273 0.41026 3.3026 0.61662 1.8581 2.6827-16.922 2.067-35.702-5.9813-51.386-7.8419-15.065-23.734-28.063-40.862-30.54-0.20636-0.41273-0.41438-1.0342-0.62075-1.447 7.8419-0.41273 15.479-1.6501 23.321-2.2692 9.9055-0.82546 18.158 0.82466 27.239 4.3329 0.20636 0 0.41273-2.6828 0-3.0955-14.446-12.382-35.08-4.3337-52.208-2.0636-0.41273-0.82546-1.0343-1.6501-1.447-2.2692l-0.61662-7.4283c-0.41273-2.6828-0.61992-6.8109-1.8581-10.113 9.2864 1.6509 20.224 0.41273 27.859-4.1273 10.525-6.191 14.651-18.778 24.969-24.969 0.6191 4.1273 2.2725 7.8427 5.5743 10.113 4.54 2.8891 10.523 2.8867 15.888 3.7122-4.7464 2.27-9.4936 4.952-13.208 8.4602-9.9055 9.4928-4.7456 21.67 5.9854 27.448 7.4292 3.9209 16.095 4.9512 23.111 9.6976 6.191 4.1273 9.4945 10.731 15.066 15.477 6.6037 5.5719 17.542 9.6992 25.59 5.1591 4.7464-2.6827 7.0139-6.8076 7.8394-11.967 0.6191 1.0318 1.239 2.0645 1.8581 2.8899 4.3337 6.6037 12.59 10.525 20.225 5.1591 8.8737-6.3973 12.174-19.813 18.984-28.274 9.4928-11.763 30.13-19.397 29.717-36.525-0.41273-15.684-11.968-20.429-24.969-20.842 15.065-3.9209 30.129-14.241 34.05-26.416 1.6509-5.3655 2.062-11.764 0.41108-17.13-0.41273-1.0318-0.61909-2.0604-1.0318-2.8859 5.3655 0.20637 10.733 0.41193 16.098 0.20554 1.4446 0 0.61745-6.6029 0.41108-7.4283-3.0955-12.795-7.8394-26.002-3.7121-39.209 1.8573-6.3973 4.7448-12.384 5.5702-18.988 1.2382-7.4292 1.0327-17.539-4.3328-23.317-7.8419-8.461-22.909-3.0955-32.402-1.0318-8.6673 2.0636-17.539 4.1257-26.412 2.4748-2.6827-0.41273-8.4634-1.2382-9.7016-4.1273-1.6509-3.7146 1.2407-6.8117 4.5425-8.8753 0 0.6191 0.20637 2.0645 0.20637 1.8581 20.224-20.637 62.322 14.858 76.561-15.477 4.54-9.6992 3.717-21.668 2.4789-31.987-0.82546-6.191-2.0661-12.382-3.5107-18.573-1.6509-8.0482-6.6045-22.079-1.8581-29.508 0.6191-0.82546 0.41604-2.2708 0.20967-3.9218 0.6191-0.41273 1.4446-0.82465 2.0636-1.2374 0.6191-0.41273 0.40943-4.748-0.20966-4.748-8.2546 0.6191-16.094 2.0637-24.349 2.0637-8.461 0-16.924-0.82547-25.385 0-11.35 1.0318-23.319 4.1289-31.987 11.971-7.0164 6.6037-10.523 15.683-11.761 24.969-1.4446 10.525-0.20885 25.589-7.638 34.05-3.0955 3.5082-8.0474 5.3647-12.587 4.3329-7.0164-1.6509-7.2211-8.8753-6.602-15.066 0.6191-8.2546 3.5074-16.094 4.3328-24.349 1.4446-14.652-3.7162-23.731-15.066-27.033 9.2864-3.9209 16.51-10.527 17.336-21.052 0.6191-6.6037 0.20802-15.271-5.5702-19.605-11.144-8.2546-21.668-5.1599-25.796-21.463-6.191-25.383-33.431-11.76-46.432 0.20958-8.461 7.8419-21.876 22.699-16.304 35.493 0.20636 0.6191 0.61744-2.4764 0.41108-3.0955-4.54-11.763 21.053-30.542 29.101-35.082 6.6037-3.9209 14.649-7.0164 22.285-4.1273 10.112 3.9209 8.4626 12.999 11.971 21.048 2.27 5.5719 6.3957 8.4626 11.761 10.939 7.2228 3.3018 21.256 5.779 13.208 17.335-8.0482 11.556-24.351 12.999-38.178 16.094-13.826-3.9209-29.923-2.2692-44.369-4.3329-0.6191 0-0.82546 4.7464 0 5.1591 10.318 6.3973 22.083 4.9552 33.639 5.5743 0 0.20637 0.20636 0.41112 0.20636 0.41112 2.6827 0.41274 5.7758 0.82547 8.8712 1.0318 2.0637 0.6191 4.337 1.2374 6.4006 2.2692 7.2228 3.5082 19.396 10.525 18.158 19.605-0.82546 6.6037-5.16 6.3981-10.113 9.0809-3.3018 1.6509-5.7774 3.9193-8.4602 6.6021-10.525 10.731-19.191 18.78-35.288 17.335-13.62-1.0318-27.447-8.8729-29.717-22.906 2.4764-6.3973 3.5082-13.619 3.0955-20.016 0-1.4446-0.61992-1.4446-0.82629 0-0.82546 17.335-15.475 34.462-33.635 32.192-19.605-2.4764-15.271-21.464-19.605-35.497-3.9209-12.382-26.003-32.19-14.24-44.159 13.207-13.414 36.939-0.82546 47.67 9.2864 0.20637 0.20636 0.82464-3.0963 0.20637-3.9218-5.3655-6.191-11.35-11.559-18.573-14.861-3.0955-2.8891-5.9829-5.7758-8.6657-8.8713-7.0164-8.0482-15.477-19.401-1.0318-24.147 12.588-4.1273 25.385 1.0318 37.767-5.1591 4.9528-2.4764 9.9039-5.9822 15.888-5.7758 12.382 0.61909 15.684 14.446 12.382 24.558-0.20636 0.6191 0.2043 3.3018 0.41108 3.0955 5.1591-8.461 3.3051-23.733-3.9176-30.749-7.8419-7.6355-16.719-2.8899-24.974 1.2374-11.763 5.7782-24.35 1.2382-36.319 5.1591-5.9846 2.0636-9.4903 4.7464-10.935 8.2546-10.937-26.415-5.9862-50.764 11.761-72.639 10.318-12.588 22.288-24.148 28.686-39.419 2.0637-5.1591 3.9193-10.522 5.5702-16.094 5.3655-2.6827 10.733-5.5735 15.893-8.8753 13.826-8.6674 29.303-19.604 31.16-37.351 1.4446-14.239-9.4928-26.622-24.764-18.367-5.1591 2.8891-7.4316 8.0507-7.638 13.829-0.20637 3.7146 0.20967 10.521 5.3688 8.045 0.82546-0.41273 0.6191-3.5082 0-4.1273-6.191-6.6037 4.9519-10.111 10.524-10.524 7.2228-0.41273 15.063 1.4446 13.825 10.318-1.6509 12.588-17.335 22.494-26.827 28.891-5.1591 3.5082-10.523 6.8117-15.888 9.9071 4.9528-22.081 5.5719-46.226 0-67.069-8.9579-32.54-33.929-57.928-41.152-91.152-4.3337-19.605 2.6811-43.543 25.175-47.464 8.2546-1.4446 24.145 6.191 13.414 16.509-5.9846 5.7782-12.587 4.1289-16.92 11.971-0.20636 0.6191-0.61992 5.5711 0.20637 5.3647 11.35-2.89 21.049-5.984 22.7-18.985 1.032-9.492-1.0317-20.636-11.35-23.732-1.5477-0.4898-3.129-0.75019-4.72-0.80581zm-18.186 560.26c0.20636 0.20636 0.20636 0.41434 0.20636 0.6207 0 0 0.20636-1.4454 0.20636-1.8581 0-0.20637 0.000619-0.20878-0.20636-0.41515 0 0.6191-0.20636 1.0334-0.20636 1.6525zm21.047-332.66c-5.1591 11.969-12.379 22.287-21.459 33.224-11.763 14.239-22.082 29.301-24.558 48.081-2.0637 15.477 0.41356 30.545 7.0172 44.578-2.6827 8.6674 5.7768 20.016 14.857 29.302-2.4764-0.6191-4.9521-1.0318-7.4285-1.0318-1.2382 0-2.6834-0.0008-3.9216 0.20554 0-1.0318 0.000619-1.2374-0.20637-1.2374-12.588-10.112-22.289-22.081-28.48-37.146-3.9209-9.4928-7.2211-20.432-6.602-30.544 0.6191-9.6992 5.7758-19.396 10.935-27.444 7.4292-11.556 16.925-21.258 26.005-31.37l3.7123-4.3329c2.4764-2.8891 4.9528-5.9846 7.2228-9.2864 3.9209-2.8891 8.4618-5.3647 12.176-7.4284 3.5082-2.0636 7.0148-3.713 10.729-5.5702zm107.8 9.2864c-1.2118-0.004-2.4772 0.12733-3.7928 0.41112-8.8737 1.8573-14.24 10.11-14.24 18.984-0.20636 15.89 20.433 18.16 17.751 1.0318-0.6191-3.3018-1.2413 0.20797-1.2413 1.6525 0.20636 3.9209-18.572 5.7766-12.587-5.7798 3.7146-7.2228 15.065-9.0785 21.668-5.5702 23.113 12.382 6.606 48.494-6.8078 62.321-11.763 12.176-27.862 12.383-42.514 18.367 8.0482-16.922 8.8768-43.749-11.141-50.765-10.937-3.7146-24.352-0.20472-24.558 13.003-0.20637 9.4928 9.9055 18.365 18.573 10.729 0.41273-0.41273 0.41356-3.5098-0.20636-3.7162-3.0955-0.82546-15.892-1.8549-15.892-6.8076 0 0.20637 6.1926-3.509 7.8435-3.9217 3.5082-0.82546 7.4267-0.6191 10.935 0 6.8101 1.2382 14.033 4.7448 16.509 11.761 3.3018 9.2864 0.20636 21.258-4.1273 30.338-0.82546 0.41273-1.6501 0.61909-2.2692 1.0318-9.9055 5.1591-15.475 13.415-14.031 24.558 0.20636 1.6509 0.61683 0.82305 0.61683-0.41515-0.41273-14.858 21.876-20.224 32.813-22.7 14.239-3.5082 24.349-8.2522 33.43-20.221 12.176-16.096 17.956-40.242 10.733-59.64-3.0697-7.9451-8.9835-14.626-17.464-14.651zm-216.86 75.31c-5.6761-0.0103-11.784 1.7106-16.195 3.1035-0.6191 0.20636-0.6191 3.5066 0 3.5066 9.9055 2.6828 33.017-1.4446 27.239 15.477-5.5719 16.716-23.318 26.62-28.27 43.748-1.8573 6.6037-2.0636 14.036 0 20.846-6.81 16.716 1.6501 39.828 14.651 50.765 12.382 10.525 28.272 16.096 42.305 23.938 19.605 10.937 36.32 30.336 34.05 54.481 0 0.6191 0.41418 3.7122 0.62054 1.6485 2.6827-20.017-6.6029-47.461-21.874-60.668-18.573-16.096-47.258-15.892-62.941-36.735-6.191-8.2546-7.4292-18.573-4.1273-26.827 0.82546 1.6509 1.8542 3.0939 2.886 4.5384 7.4292 9.4928 22.496 9.9055 29.306-1.0318 3.5082-5.5719 4.7458-16.096 1.2376-21.874-5.1591-8.2546-18.781-5.3663-25.385-0.82626-3.5082 2.27-6.191 5.1591-8.2546 8.2546-1.6509-7.6355 1.239-16.508 5.9854-23.111 7.6355-10.525 18.162-19.813 22.083-32.607 2.0637-6.3973 3.301-17.125-1.8581-22.491-2.8891-3.0697-7.0441-4.1269-11.459-4.1354zm104.12 61.708c-0.20637 0-0.6191 2.6836 0 2.8899 10.937 4.54 13.824 12.794 14.031 23.938 0 0.41273 0.20864 1.0342 0.415 1.447-3.3018 2.6828-3.5097 7.8411-2.6842 11.556 1.0318 4.1273 4.3328 7.8419 8.4602 8.2546 2.4764 3.9209 5.5733 7.222 8.8752 10.524 3.7146 3.7146 8.0491 8.6674 13.208 10.318 0.20636 0.20636 0.41273-2.8891 0-3.0955-0.41273-0.41273-1.0341-0.82466-1.4468-1.2374 2.27 1.0318 4.9519 2.2684 7.4283 2.4748 0.41273 0 0.41273-2.474 0-2.6803-2.0637-1.4446-4.7464-1.8589-7.2228-2.6844-2.8891-1.0318-5.3655-2.4772-7.2228-4.9536 0 0-0.20636 1.0334-0.20636 1.6525-3.9209-3.3018-7.8396-6.6029-10.935-10.524 0.41273 0 0.82546-0.20554 1.0318-0.20554 5.1591-1.4446 8.4587-5.7814 9.9033-10.528 16.509-1.6509 26.83-18.159 38.593-28.27 0.41273-0.41273 0.20224-3.0955-0.20946-3.0955-7.8419 2.27-13.207 10.525-18.573 16.304-5.5719 5.9846-11.555 10.316-18.984 11.967 0-1.2382-0.41438-3.0931-0.62075-2.6803-0.6191 1.0318-1.4437 2.0628-2.2692 3.301-1.0318 0.20637-2.2684 0.20554-3.5066 0.20554-0.41273 0-0.41273 2.4788 0 2.4788h0.61662c-3.5082 2.8891-7.8394 4.5392-11.967 2.2692-1.4446-0.82546-3.7171-2.6836-3.5107-3.9217 0.20637-1.2382 2.0645-2.682 2.8899-3.301 2.0637-1.4446 5.7774-2.478 7.4283 0.41112 0.20637 0.41273 0.41583-1.6509 0.20946-2.0636-1.4446-4.1273-5.3661-5.5727-9.0807-2.8899v-0.20554c1.2334-12.17-2.2742-23.52-14.656-27.65zm-95.859 16.82c2.1152 0 4.2328 0.31115 6.09 1.1366 9.2864 4.3337-0.62219 14.031-6.4004 15.889-4.9528 1.6509-10.729 1.031-15.062-1.8581-2.0636-1.4446-3.7152-3.0931-4.9534-4.744 3.0955-4.54 7.8425-8.257 14.24-9.7016 1.8573-0.41273 3.9711-0.72147 6.0863-0.72147zm105.56 11.866c-8.2546 8.6674-20.43 10.73-31.987 10.524-0.20636 0-0.41273 2.0669 0 2.2732 10.112 0.82546 26.62 0.41031 32.192-9.7016 0.20637-0.61909 0.0008255-3.3018-0.20637-3.0955zm-0.82629 9.2864c-5.1591 7.6355-15.475 9.908-24.349 9.7016-0.20636 0-0.41273 2.0636 0 2.0636 7.8419 0.82546 21.046-0.6199 24.554-9.0809 0.20637-0.41273-0.20637-2.6844-0.20637-2.6844zm-4.4096 8.8189c-0.17541 0.0817-0.30955 1.5244-0.12795 1.7049 1.8573 7.6355-0.20637 15.478-8.2546 17.335-0.41273 0.20636-0.41273 2.8899 0 2.8899 10.112 0.41273 11.349-14.858 8.4604-21.874-0.024764-0.0516-0.051591-0.0681-0.076355-0.0563zm28.968 6.4529c-0.20637 0-0.6191 2.6836 0 2.8899 7.4292 2.6828 15.065 5.983 22.7 7.6339 0.41273 0 0.41273-2.6836 0-2.8899-6.8101-3.7146-15.271-5.1575-22.7-7.6339zm-12.184 35.9c1.4446 12.382 8.8745 22.495 21.463 26.622 8.2546 2.6828 17.747 2.6795 25.796-0.20959 2.8891-1.0318 5.3638-2.4756 7.6339-4.3329 0 0.61909 0 1.2406 0.20946 1.447 7.2228 7.6355 16.095 13.001 24.143 19.605 9.0801 7.4292 12.176 14.858 14.24 26.001-10.937 8.0482-23.938 12.792-31.987 24.349-0.6191-0.82546-1.4468-1.6501-2.4787-2.2692-8.2546-7.0164-20.427-6.6029-29.714-11.556-9.0801-4.7464-13.414-15.271-22.7-19.605-20.637-9.6992-40.86 14.034-44.369 33.639-3.5082-10.731-5.7791-23.94-1.8581-34.671 2.27-5.9846 6.3973-10.939 10.318-16.098 6.191-8.0482 9.9064-15.477 11.145-24.969 8.6673-2.8891 14.65-9.6976 18.158-17.952zm10.113 26.622c-0.20637-0.20637-0.41211 2.4732-0.20637 2.8859 3.5082 10.731 3.3025 25.589 12.176 34.05 5.3655 5.1591 12.794 8.0499 19.81 9.9072 3.0955 0.82546 28.889 3.713 27.444 8.6657 0 0.41273 0 2.2708 0.20946 1.8581 6.6037-14.652-18.989-16.507-28.069-19.19-10.731-3.3018-21.666-8.049-25.38-19.399-2.0637-6.3973-1.8581-13.207-5.9854-18.778zm98.435 42.095c-0.20637 0-0.41273 2.0669 0 2.2732 8.461 4.7464 17.954 6.6005 26.827 10.109 10.525 4.1273 20.843 9.7 29.923 16.304 16.096 11.556 22.495 28.274 31.576 44.989 0.41273 0.6191 0.41108-2.4764 0.41108-3.0955-5.5719-18.16-16.094-36.114-31.572-47.464-7.6355-5.5719-16.512-10.32-25.179-14.034-10.318-4.54-21.462-5.1599-31.987-9.0809zm-146.32 10.54c-0.20637 0-0.20637 2.0637 0 2.0637 0.41273 0 0.20636-2.0637 0-2.0637zm-51.386 16.715c-0.20636 0-0.41273 2.474 0 2.6803 17.335 4.7464 40.86 21.878 44.574 40.451 0.20636 1.4446 0.41108-0.61909 0.41108-1.0318-3.5082-19.605-25.793-38.591-44.985-42.099zm83.579 10.93c-6.6037 8.461-13.413 16.512-21.874 23.115-0.6191 0.20636-0.20636 2.0636 0 2.0636 8.461-6.191 15.889-14.034 22.08-22.495 0.41273-0.6191-0.20637-2.8907-0.20637-2.6844zm-1.1526 10.903c-0.030955-0.0237-0.059846-0.0145-0.08461 0.0363-3.5082 8.0482-14.446 16.714-23.526 16.92-0.20637 0-0.20719 2.4788 0.20636 2.4788 9.0801 0 20.43-8.4634 23.732-16.924 0.1816-0.54171-0.11144-2.3446-0.32647-2.511zm-63.853 8.702s-0.6191 2.2724 0 2.4788c5.9846 2.6828 10.523 7.2212 15.889 10.729 0.20636 0 0.61827-1.8573 0.20636-2.0637-5.3655-3.7146-10.11-8.2554-16.094-11.145zm21.076 14.643c-1.1639 0.0483-2.2973 0.37324-3.3291 1.0439-3.7146 2.27-3.9209 7.4292-3.0955 11.35 1.0318 5.3655 4.5407 8.8705 10.113 9.0768 5.1591 0 12.38-2.0604 15.062-7.0132 0.20636-0.41273 0.41356-3.9226-0.20637-3.7162-3.3018 0.6191-6.1901 3.0971-9.492 3.7162-3.7146 0.82546-8.4602 1.0294-11.556-1.447-4.1273-3.0955-2.4789-5.983 1.6484-7.6339 3.5082-1.4446 7.43-1.0342 10.113 1.6485 0.20637 0.20636 0.41273-1.6509 0-2.0636-2.0121-2.7859-5.7663-5.1067-9.2584-4.9616zm198.5 14.458c-11.969 10.937-40.244 24.969-36.323 44.574 0 1.0318 0.20947-1.0342 0.20947-1.447-1.8573-9.6992 10.934-19.19 17.332-24.349 6.3973-5.1591 13.416-9.492 18.988-15.683 0.41274-0.6191 0.00083-3.3018-0.20636-3.0955zm-206.99 1.443c-5.9846 7.4292-8.4604 17.746-9.4922 27.239 0 0.41273 0.41046 2.8923 0.61683 2.2732 2.4764-9.4928 3.509-18.988 9.0809-27.243 0.41273-0.41273-0.20636-2.4756-0.20636-2.2692zm-4.3331 1.8581c-4.54 3.5082-7.8411 8.0482-11.556 12.382-3.9209 4.54-8.0505 8.0482-12.797 11.35-0.41273 0.41273-0.20719 3.301 0.20637 3.301 5.1591-1.2382 9.2895-6.1926 12.591-9.9071 3.9209-4.54 7.6332-9.492 11.967-13.619 0.41273-0.82546-0.2043-3.713-0.41129-3.5066zm6.1105 3.9056c-0.17128 0.10277-0.33452 0.94315-0.33452 1.4591 0.41273 6.191-0.82237 12.177-0.82237 18.162 0 1.0318 0.61683 2.062 0.61683 0.41112 0.41273-6.3973 1.4454-12.796 0.82629-19.194-0.07636-0.69649-0.18366-0.90002-0.28623-0.83836zm23.607 1.8702c-0.20636 0-0.41273 1.8573 0 2.0637 13.826 5.3655 25.177 15.274 37.146 23.942 0.20636 0.20637 0.6191-2.2716 0-2.6844-10.937-9.4928-23.319-18.574-37.146-23.321zm-11.971 0.41515s-0.6191 2.4772 0 2.8899c7.4292 4.1273 14.031 9.4896 20.016 15.268 5.3655 5.1591 9.2864 11.559 14.446 16.924 0.20637 0.20637 0.41583-2.6828 0.20946-3.0955-6.3973-14.033-20.844-25.589-34.671-31.987zm24.216 0.23779c-1.2813-0.0124-2.5465 0.0444-3.7847 0.17335-0.41273 0-0.20637 2.0636 0 2.0636 10.112-0.82546 21.667 3.0971 30.334 7.8435 0 0 0.6191-2.2716 0-2.6844-7.7645-3.9725-17.58-7.3143-26.55-7.3961zm155.73 11.523c-6.3973 3.9209-10.729 10.938-16.094 16.304-0.41273 0.41273-0.00061 2.6811 0.20637 2.4748 5.5719-5.1591 10.32-10.936 16.098-15.889 0.41273-0.41273-0.20947-2.8899-0.20947-2.8899zm139.92 4.5424c-14.858 0-14.444 21.046-17.952 30.745-0.20636 0.41273-0.001 3.9226 0.41129 3.7162 5.5719-3.5082 7.2228-11.144 12.382-15.477 7.0164-5.9846 16.301-10.731 25.175-6.191 13.62 7.0164 7.0195 25.178-3.9178 31.576-6.6037 3.9209-14.449 4.5376-21.878 4.744-18.986 0.82547-35.701-3.0931-49.528-17.126-9.9055-10.112-15.477-26.623-30.955-29.512-0.20637 0-0.41273 2.0628 0 2.2692 7.8419 2.6828 13.001 8.6682 17.541 15.272l-0.61682-0.62071s-0.41273 1.6509 0 2.0637c2.6827 3.7146 5.776 7.2252 8.8714 10.733 2.8891 3.9209 6.1932 7.2228 9.7014 10.318 11.556 12.382 22.287 24.762 23.732 43.748 1.4446 18.779-4.3328 35.291-19.81 46.847-8.461 6.191-22.909 5.5694-32.402 1.6485-4.3337-1.8573-7.2236-4.1265-9.0809-7.4284 9.4928-2.27 21.463-5.779 23.526-16.304 1.2382-6.6037 0.20636-16.714-8.2546-16.92-9.6992-0.20636-18.366 9.6992-19.81 18.573-0.41273 2.4764-0.41128 4.9512-0.41128 7.6339-11.763 2.4764-23.938 3.3034-35.082 6.8117-19.192 5.9846-31.371 19.193-31.164 40.036 0 0.61909 0.41439 2.4732 0.62075 0.82224 3.7146-32.606 41.065-33.842 66.448-39.621 1.2382 5.5719 3.7177 10.937 7.4322 15.683 4.1273 5.1591 9.4905 8.6665 16.094 9.492 9.0801 1.0318 14.859-4.1265 21.463-9.492 13.207-10.525 21.668-24.557 22.7-41.479 0.82547-15.065-0.00082-32.607-8.0491-46.021-0.61909-1.6509-1.8565-3.5082-3.301-5.1591 16.303 6.6037 43.131 8.8761 56.545-2.6803 10.318-8.8737 13.827-28.893 4.9536-39.83-5.5719-7.0164-16.923-8.8713-25.384-8.8713zm-140.74 5.7758c-1.2382 0.20636-2.27 1.2382-3.0955 2.0636-1.0318 0.82546-2.0645 1.8581-2.8899 2.8899-0.41273 0.41273-0.20636 1.2398-0.20636 1.6525 0 0.20637 0.2043 1.2382 0.41128 1.0318 0.82547-0.82546 1.8581-1.6533 2.8899-2.4788 1.0318-0.82546 2.27-1.443 3.0955-2.4748 0.20637-0.41273 0.20699-2.8907-0.20636-2.6844zm-51.591 5.1591s-0.41273 1.6509 0 2.0636c2.6827 2.8891 5.571 5.1616 8.4602 7.6379 0 0 0.41273-1.6509 0-2.0637-2.8891-2.4764-5.7774-4.7488-8.4602-7.6379zm-14.446 1.447c-0.20636 0-0.41273 2.4732 0 2.8859 7.8419 4.9528 16.921 8.669 26.207 9.9071 0.41273-0.20636 0.6191-2.2692 0-2.2692-9.4928-1.6509-17.54-6.8092-26.207-10.524zm35.493 5.7758c-1.4446 0-2.8899 0.82546-3.9218 2.0636-2.8891 3.0955-2.6819 8.2562-2.2692 11.971 0.41273 2.6828 1.2382 6.191 4.1273 7.2228s7.0164-2.2724 8.2546-4.5424c0.20637-0.61909 0.61972-3.3002-0.20636-3.5066-1.0318-0.41273-2.478 0.20637-3.7162 0-1.0318-0.20636-2.0636-0.61909-3.0955-1.0318-0.41273-0.20637-0.82464-0.41354-1.2374-0.82627 1.0318-0.82546 2.2684-1.6501 3.5066-2.2692 1.6509-0.82547 3.5099-1.4454 4.7481-2.8899 0.61909-0.82546 0.61992-3.7138-0.20637-4.3329-1.6509-1.8573-3.9218-1.8581-5.9854-1.8581zm99.881 6.6061-0.82608 0.82224c-0.20636 0.20637-0.20636 1.035-0.20636 1.2414-0.20637 0-0.00083 0.82305 0.20636 0.61669l0.82608-0.82627c0.20637-0.20637 0.20637-1.031 0.20637-1.2374 0 0-0.20637-0.82304-0.20637-0.61668zm-325.43 1.2132c-4.7992 0.25394-6.5383 2.6038-10.33 6.2152-7.2228 6.6037-15.682 6.3957-25.175 6.6021-1.0318 0-0.61909 4.7464 0 5.1591 3.5082 3.7146 8.4602 5.7798 11.556 9.9072 3.3018 4.1273 4.7456 9.9047 7.4283 14.651 4.1273 7.0164 9.9078 13.207 16.924 17.541 1.6509 1.0318 3.3018 1.8589 5.1591 2.6844-7.0164 1.8573-13.21 5.5686-16.924 13.204-9.2864 19.811 5.1591 41.273 1.0318 61.91-0.20637 0.6191 0.00082 6.6053 0.82629 5.7798 12.176-10.937 29.51-9.0785 44.369-7.6339 12.176 1.2382 27.448 4.5392 37.766-3.9217 8.461-6.8101 10.317-18.78 12.793-28.686 1.8573-7.6355 3.3033-14.238 9.907-18.984 5.5719-3.5082 14.65-5.5743 15.062 4.744 0 1.8573 1.0318 3.5098 1.0318 0.62071 0.41273-9.6992-3.9201-17.749-14.651-11.971-12.382 6.8101-11.761 22.703-15.889 34.465-13.62 38.384-62.737 4.1257-89.152 23.111 0.41273-4.3337 0.41583-8.669 0.20946-13.003-0.61909-10.525-4.54-20.841-4.1273-31.366 0.82546-16.716 13.411-22.702 27.444-25.385 12.795 2.4764 27.653 1.2414 38.178-1.8541 0.6191-0.20637 0.41273-3.3043 0-3.5106-16.716-4.3337-34.462 3.9218-50.765-4.3329-8.8737-4.54-15.891-12.384-20.431-21.257-2.0636-3.9209-3.3018-8.4586-6.191-11.967-1.4446-1.8573-3.3018-3.3034-5.1591-4.748 5.5719-0.20636 11.352-0.6199 15.892-3.9217 5.9846-4.1273 7.0164-10.318 15.477-10.318 0.61909 0 0.61909-3.7122 0-3.7122-0.82546-0.0516-1.5754-0.0605-2.2612-0.0242zm243.09 7.8637c0.20637 0-0.20719 1.8573 0.20637 2.0636 6.3973 3.7146 14.241 4.1297 20.225 8.6698 0.20637 0.20636 0.6191-2.0661 0-2.4788-6.191-4.3337-13.827-4.54-20.431-8.2546zm-8.2546 2.8899c0 0.20636-0.41273 2.478 0 2.6844 7.0164 5.3655 15.89 8.8721 23.732 12.793 0 0 0.6191-2.4772 0-2.8899-7.4292-5.1591-16.303-7.222-23.732-12.587zm-21.801 0.11288c-0.21359-0.0524-0.40716 0.56024-0.27818 1.3341 0.20637 16.509-13.003 29.097-12.797 45.606 0 0.82546 0.61992 2.8899 0.82629 0.82626 1.6509-16.509 14.238-29.719 12.587-46.847-0.07635-0.61909-0.21049-0.88753-0.33864-0.91896zm17.053 0.50784c-0.20637-0.20636-0.61827 2.6828-0.20637 3.0955 5.9846 4.7464 11.559 10.111 16.924 15.683 4.9528 5.1591 9.6977 11.968 15.889 15.683 0.41273 0.20636 0.41191-2.6828 0.20637-3.0955-4.7464-5.9846-10.523-11.348-15.889-16.92-5.1591-5.3655-10.527-10.318-16.924-14.446zm-156.42 1.6485c2.8891 7.8419 8.0476 14.24 16.715 17.335 1.0318 0.41273 2.2684 0.82546 3.5066 1.0318 2.0637 5.5719 3.5082 11.352 4.1273 17.13-9.2864-11.969-27.857-19.4-41.89-21.257 0.41273-0.20636 0.82402-0.41032 1.4431-0.61668 5.7782-2.8891 11.764-7.8451 16.098-13.623zm131.66 2.0636c-1.4446 2.6828-2.6819 5.3663-4.3328 8.049-1.8573 2.8891-4.3322 4.5408-6.6022 7.0172-0.41273 0.41273-0.41335 3.3018 0.20636 3.0955 3.0955-0.41273 5.3671-3.9201 6.8117-6.3965 1.6509-2.8891 2.8891-5.9846 4.1273-9.2864 0.20636-0.6191-0.20946-2.4788-0.20946-2.4788zm10.81 3.031c-0.0248-0.006-0.0516 0.0124-0.0764 0.0644-1.0318 3.3018-1.4439 6.8109-1.2376 10.113 0.20636 3.0955 1.0287 8.0499 3.9178 9.9072 0.41273 0.20636 0.41273-2.2716 0-2.6844-1.2382-2.4764-2.4733-4.3337-2.886-7.2228-0.41273-2.8891-0.002-5.571 0.61683-8.4602 0-0.36114-0.15684-1.6719-0.33452-1.717zm152.43 12.446c-0.20637 0-0.41273 1.8573 0 2.0636 15.065 5.7782 26.412 16.716 42.095 21.463 17.541 5.3655 34.67 3.7146 52.418 0 34.876-7.4292 68.102-21.46 103.8-11.761 0.20636 0 0.41273-2.4772 0-2.8899-29.923-18.16-71.196-0.20554-102.15 5.9854-17.128 3.5082-34.053 5.5702-50.974 1.443-7.4292-1.8573-15.474-3.301-22.491-6.3965-7.8419-3.3018-14.652-7.8435-22.7-9.9072zm-140.74 5.7798c1.4446 6.81 3.7146 13.621 4.1273 20.431 0 0.6191-0.00082 1.0294 0.20637 1.6485-2.8891-7.4292-4.1265-16.095-4.3328-22.079zm310.2 12.346c-11.705-0.0291-23.352 1.0149-35.114 1.4792-0.61909 0-0.41273 3.5106 0 3.5106 18.779 1.0318 37.763-0.20636 56.335 3.0955 17.335 3.3018 34.465 9.9039 50.148 17.952 14.858 7.6355 28.064 19.605 44.78 23.732 9.9055 2.4764 20.844 1.8573 30.749-1.0318 0.41273 1.4446 1.0327 2.6836 1.8581 3.9217 6.191 9.9055 21.873 12.176 32.398 9.2864 0.41273 0 0.6191-0.20471 1.0318-0.41112 0.20636 0.41273 0.41438 1.0302 0.62074 1.443 3.5082 6.3973 16.717 11.762 25.384 9.492 7.4292 12.176 36.111 9.7016 46.223 6.6061 0.20636-0.20636 0.20801-3.0955-0.41108-3.0955-11.144 0.41273-22.699 1.2374-33.43-1.8581-2.27-0.6191-5.986-1.8589-8.8752-3.7162 1.0318-0.82547 1.8556-1.8573 2.4747-3.0955 1.0318-2.27 1.6509-8.6665 0-10.524-3.9209-4.3337-7.6332 3.7146-7.8396 7.2228v1.8581c-5.1591 0.82546-11.969-0.41515-16.509-2.4788-1.8573-0.82546-3.3041-2.062-4.5423-3.5066 6.191-3.7146 7.43-10.937 7.0172-18.573 0-0.41273 0-2.2692-0.61682-2.2692-10.112-1.4446-12.798 7.6339-11.56 15.889-4.9528 1.0318-10.729 0.82546-15.062 0-5.7782-1.0318-10.524-3.9193-13.619-7.6339 3.3018-1.2382 6.3973-2.6819 9.2864-4.3329 7.2228-4.1273 13.824-10.115 14.031-18.782 0.20637-7.2228-4.5378-16.301-12.999-14.857-12.795 2.27-17.955 19.399-16.304 32.813-5.1591 1.2382-10.319 1.8549-15.272 1.6485-14.858-0.20637-27.86-6.3965-40.036-14.651-11.144-7.4292-22.905-13.621-35.493-18.367-13.826-5.1591-28.273-9.2864-42.925-10.318-3.9209-0.30955-7.8274-0.43772-11.729-0.4474zm-459.32 5.5702c-0.03095-0.0233-0.05985-0.0144-0.08461 0.0363-2.4764 8.0482-3.3043 16.304-8.6698 23.321-4.9528 6.3973-11.968 11.142-18.984 14.857-8.461 4.3337-17.544 7.2236-26.211 11.145-7.0164 3.3018-28.89 12.797-21.874 24.147 0 0.20637 0.41191-2.0661 0.20637-2.4788-3.5082-9.4928 33.845-21.05 40.036-23.526 8.8737-3.7146 17.337-8.2514 24.147-15.268 8.6673-9.0801 8.8723-18.367 11.761-29.923 0.1816-0.36114-0.11144-2.1459-0.32647-2.3095zm447.11 3.5469c-11.144 13.826-15.273 28.476-34.671 33.635-16.922 4.54-34.669 1.2406-51.797 3.5106-8.2546 1.0318-22.495 4.9512-24.558 14.857-1.6509 7.4292 3.7146 10.114 10.318 10.939 0.41273 0 0.41273-2.478 0-2.6844-5.9846-2.27-10.935-4.1265-5.776-9.492 3.7146-3.7146 10.11-5.9854 15.062-7.0172 12.795-2.8891 26.623-0.82304 39.83-1.6485 11.35-0.6191 23.111-2.2732 32.398-9.496 9.4928-7.4292 14.033-18.984 19.605-29.302 0.20637-0.6191-0.2043-3.5074-0.41108-3.301zm-391.07 0.0241c-1.2462-0.0206-2.4869 0.0394-3.7121 0.1814-0.6191 0-0.41273 3.0947 0 3.301 13.826 5.3655 28.274 10.94 38.798 22.084 8.6673 9.0801 15.065 24.557 10.113 37.146-2.8891 7.4292-9.2856 13.411-13.619 20.221-3.9209 6.6037-4.5415 8.8737-11.971 4.1273-6.191-3.9209-12.588-7.43-19.605-10.113-7.8419-3.0955-17.955-4.9528-24.558-10.318-7.6355-6.3973-6.1895-16.922-6.6022-25.796 0-1.6509-0.82546-3.2994-1.0318-0.61668-0.41273 8.0482-1.0333 16.921 1.4431 24.969 2.6827 8.8737 9.6983 13.002 17.747 16.304 6.3973 2.6828 13.21 4.7464 19.814 7.2228 5.5719 2.0636 11.349 8.0458 16.921 8.8713 3.0955 0.41274 3.5074-0.61909 5.3647-3.0955 3.5082-4.9528 5.3663-10.521 9.0809-15.268 10.731-13.414 12.587-28.069 6.602-44.578-5.6107-16.445-26.091-34.34-44.784-34.643zm567.1 6.4731c0.61559 0.0299 1.2351 0.12981 1.8542 0.31036 9.2864 2.6828 5.7799 11.559 0.62075 15.893-5.1591 4.3337-11.763 7.6347-18.573 9.492-1.8573-5.9846-0.82484-13.001 4.9534-19.605 2.7085-3.0697 6.8363-6.299 11.145-6.0902zm-376.5 11.407c0.52727 0.0186 1.0376 0.0991 1.5277 0.25393 8.8737 2.8891 0 10.733-4.1273 12.797-4.7464 2.4764-10.112 4.1265-15.477 5.3647-0.41273-6.191 2.8914-10.11 7.6378-13.825 2.3474-1.8057 6.7488-4.7206 10.439-4.5908zm402.06 18.117c0.40179 0.0103 0.82298 0.0411 1.2615 0.0926-0.82546 4.7464-4.1273 7.6363-8.2546 9.0809-0.96724-4.8367 0.9662-9.3134 6.9931-9.1736zm22.591 16.086c1.006-0.0516 1.6775 0.5143 0.95526 1.9589-0.61909 1.4446-3.0932 2.0661-4.7441 2.4788 0-0.82547 0.20224-1.6525 0.82237-2.6844 0.61909-1.0318 1.9605-1.7017 2.9665-1.7533z"/>
</g>
</svg>
